<svg width="33" height="34" viewBox="0 0 33 34" fill="none" xmlns="http://www.w3.org/2000/svg">
<circle cx="16.5" cy="17" r="16.5" fill="#E7F1F3" fill-opacity="0.1"/>
<path d="M7.77761 13.8179C7.52767 13.6393 7.4027 13.5501 7.29374 13.5385C7.1308 13.5211 6.9675 13.6052 6.8869 13.7478C6.833 13.8432 6.833 13.9951 6.83301 14.2989V19.7011C6.833 20.3719 6.83299 20.9255 6.86984 21.3765C6.90811 21.8449 6.99024 22.2755 7.19632 22.68C7.5159 23.3072 8.02583 23.8171 8.65304 24.1367C9.05749 24.3428 9.48807 24.4249 9.95649 24.4632C10.4075 24.5 10.9611 24.5 11.6319 24.5H20.3674C21.0382 24.5 21.5919 24.5 22.0429 24.4632C22.5113 24.4249 22.9419 24.3428 23.3463 24.1367C23.9735 23.8171 24.4834 23.3072 24.803 22.68C25.0091 22.2755 25.0912 21.8449 25.1295 21.3765C25.1664 20.9255 25.1664 20.3719 25.1663 19.7011V14.2989C25.1663 14.15 25.1663 14.0756 25.1527 14.0236C25.091 13.7886 24.8355 13.6547 24.6072 13.7378C24.5567 13.7561 24.4947 13.799 24.3708 13.8849L17.919 18.3516C17.4615 18.6693 17.0599 18.9482 16.6036 19.0588C16.2045 19.1556 15.7877 19.1525 15.3901 19.0499C14.9354 18.9326 14.5379 18.6478 14.0852 18.3234L7.77761 13.8179Z" fill="#FEFEFE"/>
<path d="M24.4437 11.8073C24.5975 11.7008 24.6744 11.6475 24.7217 11.5619C24.7584 11.4954 24.7793 11.39 24.7709 11.3145C24.7601 11.2173 24.7188 11.1531 24.6362 11.0248C24.3196 10.533 23.8641 10.1271 23.3463 9.86331C22.9419 9.65724 22.5113 9.5751 22.0429 9.53683C21.5919 9.49998 21.0382 9.49999 20.3674 9.5H11.6319C10.9611 9.49999 10.4075 9.49998 9.95649 9.53683C9.48807 9.5751 9.05749 9.65724 8.65304 9.86331C8.18718 10.1007 7.78451 10.4438 7.47831 10.8611C7.38198 10.9924 7.33381 11.058 7.31794 11.1577C7.30553 11.2356 7.32286 11.3438 7.35898 11.4139C7.40515 11.5036 7.48525 11.5608 7.64545 11.6753L14.958 16.8986C15.5641 17.3314 15.6927 17.4067 15.8065 17.4361C15.939 17.4703 16.0779 17.4713 16.211 17.4391C16.3252 17.4114 16.4549 17.338 17.0672 16.9141L24.4437 11.8073Z" fill="#FEFEFE"/>
<circle cx="24" cy="10.5" r="3.125" fill="#E71D36" stroke="#2E2F30" stroke-width="1.25"/>
</svg>
