<svg width="33" height="34" viewBox="0 0 33 34" fill="none" xmlns="http://www.w3.org/2000/svg">
<circle cx="16.5" cy="17" r="16.5" fill="#E7F1F3" fill-opacity="0.1"/>
<path d="M21 13.6667C21 12.3406 20.4732 11.0688 19.5355 10.1311C18.5979 9.19346 17.3261 8.66667 16 8.66667C14.6739 8.66667 13.4021 9.19346 12.4645 10.1311C11.5268 11.0688 11 12.3406 11 13.6667C11 19.5 8.5 21.1667 8.5 21.1667H23.5C23.5 21.1667 21 19.5 21 13.6667Z" fill="#FEFEFE" stroke="#FEFEFE" stroke-width="2" stroke-linecap="round" stroke-linejoin="round"/>
<path d="M17.4419 24.5C17.2954 24.7526 17.0851 24.9622 16.8321 25.1079C16.5791 25.2537 16.2922 25.3304 16.0003 25.3304C15.7083 25.3304 15.4214 25.2537 15.1684 25.1079C14.9154 24.9622 14.7051 24.7526 14.5586 24.5" stroke="#FEFEFE" stroke-width="2" stroke-linecap="round" stroke-linejoin="round"/>
<circle cx="20" cy="10.5" r="3.125" fill="#E71D36" stroke="#2E2F30" stroke-width="1.25"/>
</svg>
